#!OML:ASF F:\VICON\USERDATA\INSTALL\rory3\rory3.ASF
:FULLY-SPECIFIED
:DEGREES
1
root 3.0615 17.3489 -3.57989 3.9582 -39.2066 3.27989
lowerback 2.12201 -0.982608 -7.05137
upperback 0.0444582 -1.4624 1.89437
thorax -0.919739 -0.698302 5.97307
lowerneck -18.6484 -3.5785 -11.9472
upperneck 22.7846 -2.93108 5.57235
head 10.695 -1.7442 3.56843
rclavicle 3.09607e-014 -2.66371e-014
rhumerus -37.2902 6.56481 -88.3448
rradius 106.514
rwrist 15.8783
rhand -23.0044 20.8578
rfingers 7.12502
rthumb 3.43884 -9.09418
lclavicle 3.09607e-014 -2.66371e-014
lhumerus -31.5923 -14.8028 97.4329
lradius 100.124
lwrist -5.95747
lhand -16.3558 16.834
lfingers 7.12502
lthumb 9.85692 46.5833
rfemur -19.4352 5.15641 13.0236
rtibia 43.052
rfoot -25.0956 1.92135
rtoes -7.10778
lfemur -12.5491 -2.17279 -18.7769
ltibia 34.0267
lfoot -21.43 8.99498
ltoes -14.6709
2
root 3.05911 17.3491 -3.57453 3.92096 -39.2472 3.31633
lowerback 2.07029 -0.964654 -7.05857
upperback 0.0662921 -1.43468 1.8606
thorax -0.873024 -0.686935 5.93953
lowerneck -18.6941 -3.57767 -11.8703
upperneck 22.8221 -2.94294 5.55168
head 10.7167 -1.74573 3.54691
rclavicle -8.94531e-015 1.59028e-015
rhumerus -37.2994 6.54353 -88.3574
rradius 106.523
rwrist 15.9085
rhand -23.0211 20.817
rfingers 7.12502
rthumb 3.42271 -9.13528
lclavicle -8.94531e-015 1.59028e-015
lhumerus -31.5923 -14.8701 97.4008
lradius 100.124
lwrist -5.86287
lhand -16.4041 16.6864
lfingers 7.12502
lthumb 9.81029 46.4379
rfemur -19.3965 5.16237 12.9809
rtibia 43.0495
rfoot -25.1313 1.95593
rtoes -7.22849
lfemur -12.4735 -2.18784 -18.8234
ltibia 33.9746
lfoot -21.4581 9.00953
ltoes -14.5678
3
root 3.05816 17.3495 -3.57388 3.93075 -39.2401 3.32977
lowerback 2.04612 -0.976445 -7.07468
upperback 0.0708677 -1.44906 1.84728
thorax -0.85242 -0.69504 5.93434
lowerneck -18.6868 -3.55806 -11.8756
upperneck 22.8021 -2.93009 5.6126
head 10.7072 -1.73251 3.57188
rclavicle 7.73769e-014 -6.75868e-015
rhumerus -37.2981 6.5498 -88.4049
rradius 106.538
rwrist 15.9069
rhand -22.9882 20.8225
rfingers 7.12502
rthumb 3.45449 -9.12928
lclavicle 7.73769e-014 -6.75868e-015
lhumerus -31.5748 -14.8683 97.3616
lradius 100.136
lwrist -5.85307
lhand -16.3879 16.687
lfingers 7.12502
lthumb 9.82591 46.4377
rfemur -19.4028 5.21978 12.967
rtibia 43.0408
rfoot -25.1218 1.97246
rtoes -6.95033
lfemur -12.5009 -2.17471 -18.8359
ltibia 33.9814
lfoot -21.4469 9.05987
ltoes -14.8203
4
root 3.05771 17.3492 -3.57216 3.95093 -39.2433 3.28251
lowerback 2.04967 -0.97529 -7.03674
upperback 0.0866707 -1.44655 1.84275
thorax -0.83945 -0.694942 5.90775
lowerneck -18.6382 -3.54721 -11.8379
upperneck 22.7226 -2.92751 5.60198
head 10.6674 -1.72774 3.56063
rclavicle -6.1176e-014 -1.98785e-015
rhumerus -37.2908 6.54794 -88.4199
rradius 106.562
rwrist 15.8774
rhand -22.9029 20.8324
rfingers 7.12502
rthumb 3.53689 -9.118
lclavicle -6.1176e-014 -1.98785e-015
lhumerus -31.5568 -14.8521 97.3419
lradius 100.143
lwrist -5.92649
lhand -16.3719 16.7294
lfingers 7.12502
lthumb 9.84133 46.4794
rfemur -19.3834 5.21698 13.0104
rtibia 43.0371
rfoot -25.0943 1.95006
rtoes -7.24052
lfemur -12.4831 -2.1416 -18.8011
ltibia 33.9754
lfoot -21.4437 9.06862
ltoes -14.9285
5
root 3.05754 17.3483 -3.57072 3.97744 -39.2609 3.2741
lowerback 2.05514 -0.960573 -7.03542
upperback 0.0680806 -1.42776 1.83693
thorax -0.864892 -0.683941 5.90091
lowerneck -18.5937 -3.53686 -11.8472
upperneck 22.6899 -2.92288 5.6315
head 10.6469 -1.72263 3.57321
rclavicle -2.59414e-014 -3.97569e-016
rhumerus -37.3308 6.5257 -88.4118
rradius 106.583
rwrist 15.8258
rhand -22.8045 20.9446
rfingers 7.12502
rthumb 3.63187 -9.00417
lclavicle -2.59414e-014 -3.97569e-016
lhumerus -31.585 -14.8987 97.3466
lradius 100.161
lwrist -5.89616
lhand -16.4971 16.7518
lfingers 7.12502
lthumb 9.72056 46.5075
rfemur -19.4097 5.17747 13.0148
rtibia 43.0374
rfoot -25.0934 1.90605
rtoes -7.5931
lfemur -12.4951 -2.12301 -18.7975
ltibia 33.9795
lfoot -21.4505 9.07495
ltoes -14.7595
6
root 3.05717 17.3483 -3.56996 3.9956 -39.2565 3.26009
lowerback 2.08067 -0.969263 -7.04304
upperback 0.029791 -1.44209 1.85767
thorax -0.916028 -0.68786 5.92852
lowerneck -18.5345 -3.51233 -11.9212
upperneck 22.7093 -2.88108 5.65534
head 10.6404 -1.70868 3.60102
rclavicle 1.88845e-014 -7.95139e-015
rhumerus -37.4228 6.56267 -88.4056
rradius 106.631
rwrist 15.7944
rhand -22.82 20.9941
rfingers 7.12502
rthumb 3.61694 -8.95498
lclavicle 1.88845e-014 -7.95139e-015
lhumerus -31.6563 -14.8555 97.392
lradius 100.185
lwrist -5.88501
lhand -16.4687 16.7276
lfingers 7.12502
lthumb 9.74801 46.482
rfemur -19.4191 5.17882 13.0272
rtibia 43.0369
rfoot -25.0876 1.89667
rtoes -7.3888
lfemur -12.5091 -2.13214 -18.7875
ltibia 33.9825
lfoot -21.4056 9.08963
ltoes -14.644
7
root 3.05522 17.3486 -3.56867 3.97456 -39.2608 3.28311
lowerback 2.08258 -0.983601 -7.08414
upperback 0.0117809 -1.46277 1.85973
thorax -0.931534 -0.69685 5.95485
lowerneck -18.4708 -3.4857 -11.9346
upperneck 22.7056 -2.85267 5.67114
head 10.6244 -1.69593 3.61334
rclavicle 1.21209e-013 3.37934e-014
rhumerus -37.474 6.62243 -88.4321
rradius 106.664
rwrist 15.7633
rhand -22.9447 20.9589
rfingers 7.12502
rthumb 3.49647 -8.99216
lclavicle 1.21209e-013 3.37934e-014
lhumerus -31.7109 -14.8207 97.3968
lradius 100.197
lwrist -5.8915
lhand -16.4636 16.7801
lfingers 7.12502
lthumb 9.75289 46.5343
rfemur -19.3999 5.25111 13.0066
rtibia 43.0374
rfoot -25.1028 1.93987
rtoes -6.81867
lfemur -12.4928 -2.16227 -18.801
ltibia 33.9797
lfoot -21.4267 9.04435
ltoes -14.167
8
root 3.05516 17.3493 -3.56866 3.95697 -39.2377 3.30837
lowerback 2.10244 -0.996183 -7.09302
upperback 0.0113411 -1.48141 1.83805
thorax -0.940605 -0.705783 5.93796
lowerneck -18.4844 -3.47946 -11.9033
upperneck 22.71 -2.85318 5.67686
head 10.6279 -1.69267 3.61024
rclavicle -1.21507e-013 5.56597e-015
rhumerus -37.4463 6.61908 -88.4755
rradius 106.653
rwrist 15.732
rhand -22.9183 20.9282
rfingers 7.12502
rthumb 3.52204 -9.02248
lclavicle -1.21507e-013 5.56597e-015
lhumerus -31.7123 -14.8156 97.3452
lradius 100.197
lwrist -5.88724
lhand -16.426 16.8679
lfingers 7.12502
lthumb 9.78914 46.6203
rfemur -19.3902 5.2665 12.9932
rtibia 43.0379
rfoot -25.1254 1.87718
rtoes -7.0608
lfemur -12.495 -2.227 -18.8247
ltibia 33.9851
lfoot -21.4373 9.1021
ltoes -14.4093
9
root 3.05476 17.349 -3.56861 3.96144 -39.2248 3.31765
lowerback 2.11089 -0.99124 -7.11167
upperback 0.00479002 -1.47607 1.83465
thorax -0.952614 -0.702335 5.94521
lowerneck -18.4695 -3.49925 -11.9332
upperneck 22.6866 -2.87999 5.70286
head 10.6201 -1.70394 3.62037
rclavicle -1.2921e-014 2.50469e-014
rhumerus -37.439 6.5964 -88.4737
rradius 106.66
rwrist 15.7451
rhand -22.8113 20.8445
rfingers 7.12502
rthumb 3.62533 -9.10445
lclavicle -1.2921e-014 2.50469e-014
lhumerus -31.6914 -14.8358 97.3235
lradius 100.184
lwrist -5.9058
lhand -16.4296 16.8618
lfingers 7.12502
lthumb 9.78572 46.6144
rfemur -19.3963 5.25912 12.9909
rtibia 43.0383
rfoot -25.14 1.824
rtoes -7.36091
lfemur -12.5075 -2.32316 -18.8379
ltibia 33.9995
lfoot -21.4498 9.21292
ltoes -14.6736
10
root 3.0542 17.3482 -3.56897 3.98775 -39.2337 3.32073
lowerback 2.12825 -0.989081 -7.17431
upperback -0.0349949 -1.47659 1.87464
thorax -1.00099 -0.699061 6.02406
lowerneck -18.4038 -3.50978 -12.0085
upperneck 22.6743 -2.88191 5.70663
head 10.6052 -1.71165 3.63382
rclavicle -4.99943e-014 -7.95139e-015
rhumerus -37.4926 6.6441 -88.4132
rradius 106.668
rwrist 15.7102
rhand -22.7507 20.8518
rfingers 7.12502
rthumb 3.68383 -9.09609
lclavicle -4.99943e-014 -7.95139e-015
lhumerus -31.7186 -14.7931 97.3707
lradius 100.193
lwrist -5.89797
lhand -16.3976 16.8352
lfingers 7.12502
lthumb 9.81655 46.5864
rfemur -19.4309 5.29139 12.9853
rtibia 43.0316
rfoot -25.1439 1.82456
rtoes -7.1435
lfemur -12.5587 -2.22887 -18.8321
ltibia 34.0369
lfoot -21.4505 9.14199
ltoes -14.6375
11
root 3.05417 17.3487 -3.56788 4.01592 -39.2096 3.33048
lowerback 2.10339 -1.00053 -7.18604
upperback -0.048779 -1.4906 1.88321
thorax -0.998602 -0.705676 6.03967
lowerneck -18.3618 -3.52152 -12.0694
upperneck 22.6437 -2.89573 5.7479
head 10.5891 -1.71809 3.65653
rclavicle -9.54166e-015 4.37326e-015
rhumerus -37.5012 6.63439 -88.391
rradius 106.678
rwrist 15.7224
rhand -22.6975 20.8375
rfingers 7.12502
rthumb 3.73518 -9.10954
lclavicle -9.54166e-015 4.37326e-015
lhumerus -31.7504 -14.7478 97.4235
lradius 100.199
lwrist -5.92899
lhand -16.383 16.7671
lfingers 7.12502
lthumb 9.83063 46.5176
rfemur -19.4636 5.28063 12.9734
rtibia 43.0261
rfoot -25.1109 1.8793
rtoes -6.72464
lfemur -12.6184 -2.13701 -18.835
ltibia 34.0783
lfoot -21.4682 9.04051
ltoes -14.6385
12
root 3.05435 17.3492 -3.56761 4.07608 -39.1593 3.24083
lowerback 2.11081 -1.01249 -7.11142
upperback -0.0395413 -1.50483 1.9064
thorax -0.992182 -0.713721 6.02186
lowerneck -18.3268 -3.54427 -12.1477
upperneck 22.5886 -2.92608 5.8207
head 10.5679 -1.729 3.69079
rclavicle 7.9166e-014 1.59028e-015
rhumerus -37.4631 6.6221 -88.3871
rradius 106.671
rwrist 15.7598
rhand -22.6616 20.7942
rfingers 7.12502
rthumb 3.7699 -9.15221
lclavicle 7.9166e-014 1.59028e-015
lhumerus -31.733 -14.7617 97.4566
lradius 100.199
lwrist -5.87229
lhand -16.4739 16.8013
lfingers 7.12502
lthumb 9.74293 46.5559
rfemur -19.455 5.25836 13.0593
rtibia 43.0196
rfoot -25.0551 1.87066
rtoes -6.61364
lfemur -12.649 -2.11777 -18.7557
ltibia 34.1139
lfoot -21.4464 9.04271
ltoes -14.9596
13
root 3.05444 17.3495 -3.56833 4.11565 -39.1606 3.16068
lowerback 2.14776 -1.0047 -7.07255
upperback -0.0450402 -1.49593 1.93916
thorax -1.02014 -0.708144 6.03501
lowerneck -18.2593 -3.56861 -12.2884
upperneck 22.5375 -2.95173 5.92017
head 10.5432 -1.74065 3.74605
rclavicle 2.08724e-014 2.10712e-014
rhumerus -37.4381 6.59341 -88.3592
rradius 106.651
rwrist 15.8147
rhand -22.5045 20.7978
rfingers 7.12502
rthumb 3.92162 -9.14582
lclavicle 2.08724e-014 2.10712e-014
lhumerus -31.7222 -14.8004 97.4827
lradius 100.19
lwrist -5.77287
lhand -16.6506 16.7884
lfingers 7.12502
lthumb 9.57247 46.551
rfemur -19.4381 5.27996 13.1349
rtibia 43.0129
rfoot -25.0738 1.81961
rtoes -6.92155
lfemur -12.6462 -2.13747 -18.685
ltibia 34.1304
lfoot -21.4423 9.08772
ltoes -15.0996
